<svg xmlns="http://www.w3.org/2000/svg" width="500" height="500">
<g transform="translate(300.0,300.0)"><rect x="-50.0" y="-50.0" width="100.0" height="100.0" fill="none" stroke="black" /><g transform="rotate(15.0)"><g transform="scale(0.95,0.95)"><rect x="-50.0" y="-50.0" width="100.0" height="100.0" fill="none" stroke="black" /><g transform="rotate(15.0)"><g transform="scale(0.95,0.95)"><rect x="-50.0" y="-50.0" width="100.0" height="100.0" fill="none" stroke="black" /><g transform="rotate(15.0)"><g transform="scale(0.95,0.95)"><rect x="-50.0" y="-50.0" width="100.0" height="100.0" fill="none" stroke="black" /><g transform="rotate(15.0)"><g transform="scale(0.95,0.95)"><rect x="-50.0" y="-50.0" width="100.0" height="100.0" fill="none" stroke="black" /><g transform="rotate(15.0)"><g transform="scale(0.95,0.95)"><rect x="-50.0" y="-50.0" width="100.0" height="100.0" fill="none" stroke="black" /><g transform="rotate(15.0)"><g transform="scale(0.95,0.95)"><rect x="-50.0" y="-50.0" width="100.0" height="100.0" fill="none" stroke="black" /><g transform="rotate(15.0)"><g transform="scale(0.95,0.95)"><rect x="-50.0" y="-50.0" width="100.0" height="100.0" fill="none" stroke="black" /><g transform="rotate(15.0)"><g transform="scale(0.95,0.95)"><rect x="-50.0" y="-50.0" width="100.0" height="100.0" fill="none" stroke="black" /><g transform="rotate(15.0)"><g transform="scale(0.95,0.95)"><rect x="-50.0" y="-50.0" width="100.0" height="100.0" fill="none" stroke="black" /><g transform="rotate(15.0)"><g transform="scale(0.95,0.95)"><rect x="-50.0" y="-50.0" width="100.0" height="100.0" fill="none" stroke="black" /><g transform="rotate(15.0)"><g transform="scale(0.95,0.95)"><rect x="-50.0" y="-50.0" width="100.0" height="100.0" fill="none" stroke="black" /><g transform="rotate(15.0)"><g transform="scale(0.95,0.95)"><rect x="-50.0" y="-50.0" width="100.0" height="100.0" fill="none" stroke="black" /><g transform="rotate(15.0)"><g transform="scale(0.95,0.95)"><rect x="-50.0" y="-50.0" width="100.0" height="100.0" fill="none" stroke="black" /><g transform="rotate(15.0)"><g transform="scale(0.95,0.95)"><rect x="-50.0" y="-50.0" width="100.0" height="100.0" fill="none" stroke="black" /><g transform="rotate(15.0)"><g transform="scale(0.95,0.95)"><rect x="-50.0" y="-50.0" width="100.0" height="100.0" fill="none" stroke="black" /><g transform="rotate(15.0)"><g transform="scale(0.95,0.95)"><rect x="-50.0" y="-50.0" width="100.0" height="100.0" fill="none" stroke="black" /><g transform="rotate(15.0)"><g transform="scale(0.95,0.95)"><rect x="-50.0" y="-50.0" width="100.0" height="100.0" fill="none" stroke="black" /><g transform="rotate(15.0)"><g transform="scale(0.95,0.95)"><rect x="-50.0" y="-50.0" width="100.0" height="100.0" fill="none" stroke="black" /><g transform="rotate(15.0)"><g transform="scale(0.95,0.95)"><rect x="-50.0" y="-50.0" width="100.0" height="100.0" fill="none" stroke="black" /><g transform="rotate(15.0)"><g transform="scale(0.95,0.95)"><rect x="-50.0" y="-50.0" width="100.0" height="100.0" fill="none" stroke="black" /><g transform="rotate(15.0)"><g transform="scale(0.95,0.95)"><rect x="-50.0" y="-50.0" width="100.0" height="100.0" fill="none" stroke="black" /><g transform="rotate(15.0)"><g transform="scale(0.95,0.95)"><rect x="-50.0" y="-50.0" width="100.0" height="100.0" fill="none" stroke="black" /><g transform="rotate(15.0)"><g transform="scale(0.95,0.95)"><rect x="-50.0" y="-50.0" width="100.0" height="100.0" fill="none" stroke="black" /><g transform="rotate(15.0)"><g transform="scale(0.95,0.95)"><rect x="-50.0" y="-50.0" width="100.0" height="100.0" fill="none" stroke="black" /><g transform="rotate(15.0)"><g transform="scale(0.95,0.95)"><rect x="-50.0" y="-50.0" width="100.0" height="100.0" fill="none" stroke="black" /><g transform="rotate(15.0)"><g transform="scale(0.95,0.95)"><rect x="-50.0" y="-50.0" width="100.0" height="100.0" fill="none" stroke="black" /><g transform="rotate(15.0)"><g transform="scale(0.95,0.95)"><rect x="-50.0" y="-50.0" width="100.0" height="100.0" fill="none" stroke="black" /><g transform="rotate(15.0)"><g transform="scale(0.95,0.95)"><rect x="-50.0" y="-50.0" width="100.0" height="100.0" fill="none" stroke="black" /><g transform="rotate(15.0)"><g transform="scale(0.95,0.95)"><rect x="-50.0" y="-50.0" width="100.0" height="100.0" fill="none" stroke="black" /><g transform="rotate(15.0)"><g transform="scale(0.95,0.95)"><rect x="-50.0" y="-50.0" width="100.0" height="100.0" fill="none" stroke="black" /><g transform="rotate(15.0)"><g transform="scale(0.95,0.95)"><rect x="-50.0" y="-50.0" width="100.0" height="100.0" fill="none" stroke="black" /><g transform="rotate(15.0)"><g transform="scale(0.95,0.95)"><rect x="-50.0" y="-50.0" width="100.0" height="100.0" fill="none" stroke="black" /><g transform="rotate(15.0)"><g transform="scale(0.95,0.95)"><rect x="-50.0" y="-50.0" width="100.0" height="100.0" fill="none" stroke="black" /><g transform="rotate(15.0)"><g transform="scale(0.95,0.95)"><rect x="-50.0" y="-50.0" width="100.0" height="100.0" fill="none" stroke="black" /><g transform="rotate(15.0)"><g transform="scale(0.95,0.95)"><rect x="-50.0" y="-50.0" width="100.0" height="100.0" fill="none" stroke="black" /><g transform="rotate(15.0)"><g transform="scale(0.95,0.95)"><rect x="-50.0" y="-50.0" width="100.0" height="100.0" fill="none" stroke="black" /><g transform="rotate(15.0)"><g transform="scale(0.95,0.95)"><rect x="-50.0" y="-50.0" width="100.0" height="100.0" fill="none" stroke="black" /><g transform="rotate(15.0)"><g transform="scale(0.95,0.95)"><rect x="-50.0" y="-50.0" width="100.0" height="100.0" fill="none" stroke="black" /><g transform="rotate(15.0)"><g transform="scale(0.95,0.95)"><rect x="-50.0" y="-50.0" width="100.0" height="100.0" fill="none" stroke="black" /><g transform="rotate(15.0)"><g transform="scale(0.95,0.95)"><rect x="-50.0" y="-50.0" width="100.0" height="100.0" fill="none" stroke="black" /><g transform="rotate(15.0)"><g transform="scale(0.95,0.95)"><rect x="-50.0" y="-50.0" width="100.0" height="100.0" fill="none" stroke="black" /><g transform="rotate(15.0)"><g transform="scale(0.95,0.95)"><rect x="-50.0" y="-50.0" width="100.0" height="100.0" fill="none" stroke="black" /><g transform="rotate(15.0)"><g transform="scale(0.95,0.95)"><rect x="-50.0" y="-50.0" width="100.0" height="100.0" fill="none" stroke="black" /><g transform="rotate(15.0)"><g transform="scale(0.95,0.95)"><rect x="-50.0" y="-50.0" width="100.0" height="100.0" fill="none" stroke="black" /><g transform="rotate(15.0)"><g transform="scale(0.95,0.95)"><rect x="-50.0" y="-50.0" width="100.0" height="100.0" fill="none" stroke="black" /><g transform="rotate(15.0)"><g transform="scale(0.95,0.95)"><rect x="-50.0" y="-50.0" width="100.0" height="100.0" fill="none" stroke="black" /><g transform="rotate(15.0)"><g transform="scale(0.95,0.95)"><rect x="-50.0" y="-50.0" width="100.0" height="100.0" fill="none" stroke="black" /><g transform="rotate(15.0)"><g transform="scale(0.95,0.95)"><rect x="-50.0" y="-50.0" width="100.0" height="100.0" fill="none" stroke="black" /><g transform="rotate(15.0)"><g transform="scale(0.95,0.95)"><rect x="-50.0" y="-50.0" width="100.0" height="100.0" fill="none" stroke="black" /><g transform="rotate(15.0)"><g transform="scale(0.95,0.95)"></g></g></g></g></g></g></g></g></g></g></g></g></g></g></g></g></g></g></g></g></g></g></g></g></g></g></g></g></g></g></g></g></g></g></g></g></g></g></g></g></g></g></g></g></g></g></g></g></g></g></g></g></g></g></g></g></g></g></g></g></g></g></g></g></g></g></g></g></g></g></g></g></g></g></g></g></g></g></g></g></g></g></g></g></g></g></g></g></g></g></g></g></g></g></g></g></g></g></g></g></g>
</svg>